<svg width="378" height="164" viewBox="0 0 378 164" fill="none" xmlns="http://www.w3.org/2000/svg">
<path d="M378 124C378 140.569 364.569 154 348 154L30 154C13.4314 154 -3.16918e-05 140.569 -3.31403e-05 124L-4.02215e-05 43C-4.167e-05 26.4315 13.4314 13 30 13L348 13C364.569 13 378 26.4315 378 43L378 124Z" fill="#CFE3FC"/>
<g clip-path="url(#clip0_8_2)">
<path d="M107.565 159.166C107.357 159.304 107.149 159.443 106.941 159.512C99.1729 162.067 90.9192 163.586 82.3881 163.862C81.9025 163.862 81.417 163.931 80.9315 163.931L97.0922 101.507L97.5083 99.9882L91.1273 95.4308L89.4627 94.2569L96.0518 78.72C101.184 78.8581 104.444 79.0653 104.444 79.0653L105.901 116.906L107.565 159.166Z" fill="white"/>
<path d="M98.4794 102.888L82.3881 163.931C81.9025 163.931 81.417 164 80.9315 164L97.0922 101.576L98.4794 102.888Z" fill="#99D3FF"/>
<path d="M98.4794 78.72L91.1273 95.4308L89.4627 94.2569L96.0518 78.72H98.4794Z" fill="#99D3FF"/>
<path d="M97.5083 99.9882L97.0922 101.507L80.9315 163.931C80.3766 163.931 79.8218 163.931 79.2669 163.931C78.712 163.931 78.0878 163.931 77.5329 163.931L84.1914 78.5128C84.1914 78.5128 89.1159 74.715 96.0518 78.651L89.4627 94.1878L91.1273 95.3617L97.5083 99.9882Z" fill="white"/>
<path d="M172 79.6177C172 79.6868 172 79.7558 172 79.8939C171.861 81.6202 170.543 83.2085 169.434 84.4514C168.948 85.0038 168.463 85.6253 167.7 85.8325C167.422 85.9015 167.214 85.9015 166.937 85.8325C166.867 85.8325 166.798 85.8325 166.798 85.8325C166.659 85.9706 166.59 86.1087 166.451 86.2468C165.48 87.4207 164.717 87.9731 164.717 87.9731C162.983 88.4565 160.14 87.7659 160.14 87.7659L159.446 88.4565L158.891 88.9398L150.568 81.344L151.678 79.7558C151.678 79.7558 151.262 74.4388 151.262 73.403C151.262 73.403 152.857 70.0194 154.66 68.9146C154.66 68.9146 156.186 68.5693 157.851 69.1217L163.33 62.0783C163.33 62.0783 166.035 58.0733 168.671 60.0758C168.671 60.0758 170.821 61.664 167.977 65.0476L163.885 69.6741C164.232 69.536 164.648 69.536 165.064 69.6051C166.382 69.8813 167.284 71.1933 167.284 72.5053C167.769 72.2291 168.324 72.091 168.948 72.2291C169.434 72.2981 169.85 72.5743 170.197 72.9196C170.335 73.0577 170.474 73.1958 170.543 73.3339C170.613 73.403 170.682 73.5411 170.682 73.6101C170.752 73.6792 170.752 73.7482 170.752 73.8173C170.752 73.8863 170.752 73.8863 170.821 73.9554V74.0244C170.821 74.0935 170.89 74.1626 170.89 74.2316C170.89 74.3007 170.96 74.3697 170.96 74.4388C170.96 74.5078 170.96 74.5769 171.029 74.6459C171.029 74.715 171.029 74.784 171.029 74.8531C171.029 74.9221 171.029 74.9912 171.029 75.1293C171.029 75.1983 171.029 75.2674 171.029 75.3364C171.029 75.4746 171.029 75.6127 170.96 75.7508C170.96 75.8198 170.96 75.9579 170.89 76.027C170.89 76.1651 170.821 76.3032 170.821 76.4413C170.682 76.9247 170.543 77.339 170.335 77.7533H170.405C170.613 77.8223 170.821 77.8914 170.96 77.9604C171.584 78.2367 172 78.9272 172 79.6177Z" fill="#E2ACAB"/>
<path d="M172 79.8249C171.861 81.5512 170.543 83.1394 169.434 84.3823C168.948 84.9348 168.463 85.5562 167.7 85.7634C167.422 85.8324 167.214 85.8324 166.937 85.7634C166.867 85.7634 166.798 85.7634 166.798 85.7634C166.451 85.6943 166.104 85.4181 165.758 85.0729C165.48 84.7276 165.411 84.3823 165.411 83.968C165.411 83.7609 165.411 83.5537 165.48 83.3465C165.688 82.4489 166.174 81.5512 166.59 80.9988C167.076 80.3082 167.561 79.5487 168.047 78.8581C168.532 78.1676 169.434 77.4771 170.335 77.6152H170.405C170.613 77.6842 170.821 77.7533 170.96 77.8223C171.653 78.3057 172.069 79.1343 172 79.8249Z" fill="#E2ACAB"/>
<path d="M171.029 75.1983C171.098 73.8863 170.266 72.4362 168.879 72.16C167.561 71.8838 166.313 72.9196 165.55 73.8863C164.856 74.8531 164.162 75.8888 163.469 76.8556C162.567 78.2366 161.041 81.0678 162.359 82.5869C163.053 83.3465 164.024 83.7608 165.064 83.5537C166.104 83.2775 166.729 82.4488 167.492 81.6202C169.018 79.8939 170.89 77.6842 171.029 75.1983Z" fill="#E2ACAB"/>
<path d="M57.4881 93.5663L57.4188 94.0497L51.8007 126.09L40.079 122.776C40.0096 120.566 39.9403 118.356 39.8709 116.147C39.3854 98.8143 39.0386 83.4846 39.0386 83.4846C40.7726 82.7251 42.8534 82.1036 45.2116 81.5512C46.1132 81.344 47.0149 81.1369 47.9859 80.9987L57.3494 93.4973L57.4881 93.5663Z" fill="white"/>
<path d="M76.4232 163.931C75.2441 163.862 74.065 163.862 72.8859 163.724L59.9851 144.596C60.6093 141.282 61.511 134.929 60.748 129.543C60.6786 129.197 60.6786 128.921 60.6093 128.576L51.8007 126.09L57.4188 94.0497L57.4881 93.5663L57.4188 93.4973L47.9859 80.9988C48.4714 80.7226 49.0263 80.4463 49.5118 80.2392C55.8929 77.408 60.5399 79.3415 60.5399 79.3415C66.0193 89.8375 73.8569 145.08 76.4232 163.931Z" fill="white"/>
<path d="M41.3968 155.368C41.1887 151.571 40.9113 146.875 40.7032 141.696L59.4995 146.806C59.4995 146.806 59.5689 146.53 59.7076 145.977C59.777 145.563 59.8463 145.08 59.9851 144.527L72.8859 163.655C61.719 162.964 51.0377 159.995 41.3968 155.368Z" fill="white"/>
<path d="M84.122 78.5819L77.4635 164C77.1168 164 76.77 164 76.4232 164C73.8569 145.08 66.0193 89.8375 60.5399 79.4105C68.3775 78.72 76.77 78.5129 84.122 78.5819Z" fill="#99D3FF"/>
<path d="M80.3766 105.098L76.4232 125.814L71.4987 151.225L70.0421 159.166L37.4434 152.192L39.108 144.734L42.9921 127.057L48.8876 99.9882L80.3766 105.098Z" fill="#E6C34B"/>
<path d="M55.9622 101.162L55.1993 104.477L74.273 107.653L74.6892 104.2C74.7585 104.2 65.4644 99.7811 55.9622 101.162Z" fill="#AD9238"/>
<path d="M76.4232 125.814L71.568 151.225C70.2502 150.949 68.5856 150.397 67.7533 149.499L66.2274 149.085L64.216 148.532C64.0079 149.223 63.6611 149.913 63.3836 150.535L60.6786 149.706C60.5399 150.259 60.4706 150.535 60.4706 150.535L41.7436 145.425L39.108 144.734L42.9921 127.057L61.6497 132.305C61.719 132.65 61.719 132.926 61.7884 133.272L65.7419 133.41C65.7419 133.41 65.8112 133.962 65.8806 134.86L66.6435 134.653L69.0017 133.893C69.0017 133.893 69.4179 132.995 70.1808 131.821C71.3599 130.026 73.302 127.471 75.7989 126.159C75.9376 126.021 76.1457 125.883 76.4232 125.814Z" fill="#AD9238"/>
<path d="M60.748 129.543C61.511 134.86 60.6093 141.213 59.9851 144.596L50.899 131.131L51.8007 126.09L60.6093 128.576C60.6786 128.921 60.6786 129.197 60.748 129.543Z" fill="#4EFF87"/>
<path d="M59.7076 146.046C59.5689 146.599 59.4995 146.875 59.4995 146.875L40.7032 141.765L32.2414 139.486C10.6014 134.376 14.2081 127.885 14.2081 127.885C18.8551 104.546 39.0386 83.5537 39.0386 83.5537C39.0386 83.5537 39.316 98.8834 39.8709 116.216C37.6514 119.254 36.3336 121.809 36.3336 121.809L40.079 122.845L60.6093 128.576C60.6786 128.921 60.748 129.197 60.748 129.543C61.6497 135.827 60.1931 143.56 59.7076 146.046Z" fill="white"/>
<path d="M158.059 94.3259L131.286 128.852C131.286 128.852 127.333 134.86 116.721 127.126C116.721 127.126 114.848 125.469 112.421 123.19C110.34 121.256 107.912 118.909 105.97 116.768L104.722 83.968L104.514 78.9272C104.514 78.9272 116.721 92.0472 125.113 107.239L145.227 81.8274L145.921 82.4489L157.365 93.4973L158.059 94.3259Z" fill="white"/>
<path d="M160.625 90.3899L157.296 93.6354L145.782 82.587L148.349 79.3415L150.568 81.344L152.025 82.656L158.961 88.8708L160.625 90.3899Z" fill="#99D3FF"/>
<path d="M162.845 67.3954C163.538 67.8788 164.024 68.2931 163.954 68.5002C163.885 68.6383 163.191 68.4312 162.428 67.8788C161.735 67.3263 161.319 66.7049 161.457 66.5668C161.596 66.4977 162.22 66.912 162.845 67.3954Z" fill="#11110A"/>
<path d="M165.342 64.0118C165.966 64.7023 166.382 65.3238 166.243 65.3928C166.104 65.531 165.48 65.0476 164.925 64.4261C164.232 63.8737 163.746 63.3213 163.885 63.1832C163.954 63.045 164.648 63.3903 165.342 64.0118Z" fill="#11110A"/>
<path d="M63.2449 144.872C63.0369 145.563 62.6901 146.253 62.4126 146.875L59.7076 146.046C60.1931 143.56 61.6497 135.827 60.748 129.543L64.7015 129.681C64.7015 129.681 64.7708 130.233 64.8402 131.131C65.0483 133.755 65.187 139.486 63.2449 144.872Z" fill="#99D3FF"/>
<path d="M83.0816 132.65C83.0816 132.65 82.9429 140.384 79.0588 144.803C77.5329 146.599 75.3828 147.842 72.4003 147.773C72.4003 147.773 68.2388 147.496 66.7129 145.77L65.187 145.356L63.1756 144.803C65.1176 139.486 64.9789 133.686 64.7708 131.131L65.5338 130.855L67.892 130.095C67.892 130.095 68.3081 129.197 69.0711 128.024C70.2502 126.228 72.1923 123.673 74.6892 122.361C75.5215 121.947 76.3538 121.671 77.2555 121.602L77.6716 119.323C77.741 119.392 83.9833 120.635 83.0816 132.65Z" fill="#E2ACAB"/>
<path d="M74.6892 122.43C72.1923 123.742 70.1808 126.297 69.0711 128.093C69.1404 127.747 69.9034 120.497 70.2502 119.392C70.2502 119.392 70.9438 116.285 72.4697 116.423C72.4697 116.423 74.5505 116.423 74.6892 119.392C74.6892 119.392 74.7585 121.464 74.6892 122.43Z" fill="#E2ACAB"/>
<path d="M83.0816 132.65C83.0816 132.65 82.9429 140.384 79.0588 144.803C82.8736 126.504 77.3248 121.602 77.3248 121.602L77.741 119.323C77.741 119.392 83.9833 120.635 83.0816 132.65Z" fill="#E2ACAB"/>
<path d="M65.6031 76.3032C65.6031 76.3032 70.0421 73.6101 78.2958 74.8531L79.683 79.2034L76.978 83.0703L70.2502 84.9347L66.0193 81.1368L65.6031 76.3032Z" fill="#11110A"/>
<path d="M77.1167 77.5461L73.5794 85.28L67.0597 77.9604V70.7099H76.6312L76.7699 73.2648L77.1167 77.5461Z" fill="#E2ACAB"/>
<path d="M76.77 73.2648C74.8279 74.0244 70.9438 75.2674 67.0597 74.9912V70.7099H76.6312L76.77 73.2648Z" fill="#11110A"/>
<path d="M73.5794 85.28L72.9552 87.6969L70.7357 96.3284L61.8578 81.275C61.8578 81.275 62.0658 78.8581 63.6611 77.408C64.1466 76.9247 64.7708 76.5794 65.6031 76.4413L67.0597 78.0295L73.5794 85.28Z" fill="#99D3FF"/>
<path d="M82.5961 80.1011L78.2959 95.0164L74.6198 87.4206L73.5794 85.28L77.1168 77.6152L78.3652 74.9221C81.5557 76.096 82.5961 80.1011 82.5961 80.1011Z" fill="#99D3FF"/>
<path d="M167.214 72.6434C167.284 71.3314 166.451 69.8813 165.064 69.6051C163.746 69.3289 162.498 70.3646 161.735 71.3314C161.041 72.2981 160.348 73.3339 159.654 74.3006C158.752 75.6817 157.227 78.5128 158.544 80.032C159.238 80.7916 160.209 81.2059 161.249 80.9987C162.29 80.7225 162.914 79.8939 163.677 79.0653C165.133 77.2699 167.075 75.1293 167.214 72.6434Z" fill="#E2ACAB"/>
<path d="M167.076 71.6076C167.145 71.9529 167.214 72.2981 167.214 72.5743C167.076 75.0602 165.133 77.2699 163.608 78.9962C162.914 79.8249 162.29 80.6535 161.18 80.9297C160.14 81.2059 159.169 80.7916 158.475 79.963C158.406 79.8939 158.406 79.8249 158.336 79.7558C158.406 80.1011 158.544 80.3773 158.752 80.6535C159.446 81.4131 160.417 81.8274 161.457 81.6202C162.498 81.344 163.122 80.5154 163.885 79.6868C165.411 77.9604 167.284 75.7508 167.492 73.2649C167.561 72.7815 167.422 72.16 167.076 71.6076Z" fill="#11110A"/>
<path d="M154.799 73.9554C154.799 73.9554 157.851 79.7558 161.249 75.8889C161.319 75.8889 157.851 75.4745 154.799 73.9554Z" fill="#11110A"/>
<path d="M161.457 75.7508C161.457 75.7508 159.377 77.9604 154.591 73.7482L154.452 79.3415L152.094 82.656L150.637 81.344L151.747 79.7558C151.747 79.7558 151.331 74.4388 151.331 73.403C151.331 73.403 152.926 70.0194 154.73 68.9145C154.73 68.9145 158.475 67.9478 160.694 71.2623C160.625 71.2623 163.122 74.0935 161.457 75.7508Z" fill="#E2ACAB"/>
<path d="M158.059 72.6434C158.544 71.9529 159.03 71.4695 159.169 71.5385C159.307 71.6076 159.03 72.2981 158.614 72.9887C158.128 73.6792 157.643 74.1626 157.504 74.0935C157.365 74.0244 157.573 73.403 158.059 72.6434Z" fill="#11110A"/>
<path d="M168.532 83.5537C168.948 83.968 169.156 84.3133 169.018 84.4514C168.879 84.5895 168.463 84.3823 168.116 83.968C167.7 83.6227 167.422 83.2775 167.492 83.1394C167.561 83.0013 168.116 83.1394 168.532 83.5537Z" fill="#11110A"/>
<path d="M165.411 80.8606C165.966 81.344 166.382 81.8274 166.243 81.9655C166.105 82.1036 165.619 81.8274 164.995 81.344C164.44 80.8606 164.024 80.3773 164.162 80.2392C164.301 80.1011 164.856 80.3773 165.411 80.8606Z" fill="#11110A"/>
<path d="M161.735 77.7533C162.29 78.1676 162.775 78.5819 162.637 78.72C162.567 78.8581 162.012 78.651 161.388 78.2366C161.111 78.0295 160.833 77.7533 160.694 77.5461C160.556 77.339 160.556 77.1318 160.625 77.0627C160.694 77.0627 160.833 77.1318 161.041 77.2009C161.18 77.339 161.457 77.5461 161.735 77.7533Z" fill="#11110A"/>
<path d="M170.474 73.9554C170.335 73.8173 170.197 73.6101 170.058 73.472C170.266 73.6792 170.405 73.8173 170.474 73.9554Z" fill="#421471"/>
<path d="M170.474 77.6842C170.682 77.7533 170.89 77.8224 171.029 77.8914C170.335 79.4106 169.087 80.8607 168.047 82.0346C167.353 82.8632 166.729 83.6918 165.619 83.968C165.55 83.968 165.48 83.968 165.48 83.968C164.648 84.1061 163.885 83.8299 163.261 83.2775C163.816 83.5537 164.371 83.6228 165.064 83.4847C165.203 83.4156 165.411 83.4156 165.55 83.2775C166.313 82.9322 166.867 82.2417 167.492 81.5512C168.532 80.3773 169.642 79.0653 170.405 77.5461C170.405 77.6842 170.405 77.6842 170.474 77.6842Z" fill="#11110A"/>
<path d="M154.452 78.72C154.452 78.72 156.255 77.1318 156.047 74.8531L157.157 75.8889C157.088 75.9579 157.365 77.8223 154.452 78.72Z" fill="#11110A"/>
<path d="M166.867 85.8324C166.729 85.9705 166.659 86.1086 166.521 86.2467C166.313 86.1086 166.104 85.9705 165.966 85.7634C165.688 85.4872 165.619 85.1419 165.619 84.7276C165.688 84.8657 165.758 85.0038 165.827 85.1419C166.104 85.4872 166.451 85.6943 166.867 85.8324Z" fill="#11110A"/>
<path d="M160.209 87.6969L159.515 88.3874C158.822 87.835 157.989 86.7992 157.504 84.7276C157.573 85.0038 158.406 86.6611 160.209 87.6969Z" fill="#11110A"/>
<path d="M36.1255 45.4366C37.1659 47.4392 39.0386 50.2013 41.6743 49.7179C44.518 49.2345 45.2809 45.6438 45.9745 43.3651C47.223 39.36 42.6453 32.2476 37.8595 33.2834C32.7963 34.3882 34.5303 42.4674 36.1255 45.4366Z" fill="#E2ACAB"/>
<path d="M109.854 45.4366C108.814 47.4392 106.941 50.2013 104.306 49.7179C101.462 49.2345 100.699 45.6438 100.005 43.3651C98.7568 39.36 103.335 32.2476 108.12 33.2834C113.183 34.3882 111.38 42.4674 109.854 45.4366Z" fill="#E2ACAB"/>
<path d="M110.27 28.9331C108.259 32.1095 105.97 33.8358 103.681 34.5954C98.2019 36.4598 92.8613 33.1453 92.8613 33.1453C87.1045 29.3474 81.7638 31.0046 81.7638 31.0046C67.9614 34.2501 57.1413 28.4497 52.5636 25.3423C50.9684 24.2375 50.1361 23.4779 50.1361 23.4779C51.1765 26.6543 51.7313 29.5545 51.87 32.1785C52.0088 34.3882 51.8007 36.3908 51.4539 38.1861C51.3845 38.4623 51.3152 38.8076 51.2458 39.0838C50.899 40.4649 50.4829 41.7078 49.928 42.8126C49.8586 43.0198 49.7199 43.296 49.5812 43.5032C48.1247 46.2653 46.3907 48.1297 45.0035 49.3036C43.3389 43.1579 42.7146 37.979 42.4372 34.9406C42.4372 34.5263 42.3679 34.112 42.3679 33.7668C42.3679 33.5596 42.3679 33.3524 42.3679 33.2143C42.3679 32.5929 42.2985 32.2476 42.2985 32.2476C42.2985 31.6952 42.2985 31.0737 42.2985 30.5213C43.3389 -0.483354 72.9552 1.47045e-05 72.9552 1.47045e-05C87.5206 1.47045e-05 95.1501 7.94107 99.173 15.8821C99.5197 16.5726 99.7972 17.1941 100.075 17.8156C103.473 17.6084 105.762 18.0228 107.219 18.4371C108.398 18.7823 108.953 19.1276 108.953 19.1276C113.322 21.7516 110.27 28.9331 110.27 28.9331Z" fill="#C73D48"/>
<path d="M103.612 34.5954C103.612 34.7335 103.612 34.8716 103.612 34.9407C103.612 35.4931 103.543 35.9765 103.543 36.4598C103.543 36.736 103.473 37.0122 103.473 37.2885C103.473 37.6337 103.404 37.979 103.334 38.3242C101.809 52.2729 95.0807 63.3213 95.0807 63.3213C94.942 63.4594 94.8727 63.5975 94.734 63.7356C87.1045 72.3672 71.7761 72.5743 71.7761 72.5743C55.4767 71.5386 49.7893 62.4927 49.7893 62.4927C49.7893 62.4236 49.7199 62.3546 49.7199 62.3546C47.5698 57.8661 45.9745 53.3087 44.9341 49.0964C46.252 47.9226 48.0553 46.0581 49.5118 43.296C49.6505 43.0889 49.7199 42.8127 49.8586 42.6055C51.0377 40.1887 51.8007 37.1503 51.8007 33.4215C51.8007 33.2143 51.8007 32.9381 51.8007 32.731C51.8007 32.4548 51.8007 32.2476 51.8007 31.9714C51.8007 31.6261 51.7313 31.3499 51.7313 31.0047C51.662 30.3832 51.5926 29.8308 51.5232 29.2093C51.5232 29.0712 51.4539 28.864 51.4539 28.7259C51.3152 28.1045 51.2458 27.4139 51.0377 26.7925C50.9684 26.5162 50.899 26.171 50.8297 25.8948C50.8297 25.7567 50.7603 25.6186 50.6909 25.4805C50.6216 25.2042 50.5522 24.859 50.4135 24.5828C50.2748 24.1685 50.1361 23.8232 50.0667 23.4089C50.0667 23.4089 50.2748 23.616 50.7603 23.9613C50.8297 24.0303 50.9684 24.0994 51.0377 24.1685C51.87 24.7899 53.2572 25.8257 55.0606 26.8615C55.4767 27.1377 55.8929 27.3449 56.3784 27.552C56.4477 27.6211 56.5865 27.6211 56.6558 27.6901C56.8639 27.7592 57.072 27.8973 57.28 28.0354C57.4188 28.1045 57.6268 28.1735 57.7656 28.2426C57.9736 28.3807 58.2511 28.4497 58.5285 28.5878C58.6672 28.6569 58.8753 28.7259 59.014 28.795C59.2915 28.9331 59.6383 29.0712 59.9157 29.2093C60.1931 29.2783 60.4012 29.4165 60.6786 29.4855C61.9965 29.9689 63.453 30.4522 65.0483 30.7975C65.3951 30.8666 65.8112 30.9356 66.158 31.0737C66.8516 31.2118 67.5452 31.3499 68.3081 31.488C68.7937 31.5571 69.3485 31.6261 69.834 31.6952C70.1808 31.7642 70.5276 31.7642 70.8744 31.7642C70.9438 31.7642 70.9438 31.7642 71.0131 31.7642C71.4293 31.7642 71.8455 31.8333 72.2616 31.8333C72.331 31.8333 72.331 31.8333 72.4003 31.8333C72.8165 31.8333 73.2326 31.8333 73.6488 31.8333C76.2151 31.8333 78.9201 31.5571 81.8332 30.8666C81.8332 30.8666 87.2432 29.2093 92.9306 33.0072C92.7919 33.1453 98.1325 36.4598 103.612 34.5954Z" fill="#E2ACAB"/>
<path d="M44.9341 49.2345C42.4372 39.6362 42.2985 32.2476 42.2985 32.2476C42.2985 31.6952 42.2985 31.0737 42.2985 30.5213C42.9921 31.0737 43.6163 31.8333 44.518 32.4547C46.252 33.6977 47.6391 32.3166 49.3038 31.9023C50.2054 31.6952 51.0377 31.8333 51.7313 32.1785C52.2862 41.5006 47.6391 46.8867 44.9341 49.2345Z" fill="#952E36"/>
<path d="M62.8981 44.8152C65.3257 45.8509 65.8112 42.3983 65.4644 40.8101C65.2563 39.7743 64.8402 38.2552 63.5917 38.1171C62.3433 37.9789 61.5803 39.2909 61.3722 40.3267C61.1642 41.7078 61.4416 44.1937 62.8981 44.8152Z" fill="#11110A"/>
<path d="M85.0237 44.8152C87.4513 45.8509 87.9368 42.3983 87.59 40.8101C87.3819 39.7743 86.9657 38.2552 85.7173 38.1171C84.4688 37.9789 83.7059 39.2909 83.4978 40.3267C83.2897 41.7078 83.5671 44.1937 85.0237 44.8152Z" fill="#11110A"/>
<path d="M77.0474 50.2013C76.1457 51.9276 74.9666 53.3086 73.9262 54.0682C73.4407 54.4825 72.9552 54.6897 72.6084 54.8278C72.2616 54.9659 72.0535 54.9659 71.9842 54.8968C71.6374 54.4825 73.8569 52.48 75.4521 49.3726C75.5215 49.3036 75.5215 49.1655 75.5908 49.0964C75.5908 49.0274 75.5908 49.0274 75.5908 49.0274L75.5215 48.8893C75.3828 48.4749 75.244 48.0606 75.1053 47.7154C74.8279 46.9558 74.6198 46.2653 74.4811 45.7128C74.1343 44.5389 74.0649 43.7794 74.3424 43.6413C74.5505 43.5722 75.1053 44.1246 75.6602 45.2295C75.9376 45.7819 76.2844 46.4034 76.6312 47.0939C76.77 47.4392 76.978 47.8535 77.1861 48.1987C77.2555 48.3368 77.3248 48.544 77.3942 48.6821L77.5329 48.9583C77.6023 49.0274 77.5329 49.0274 77.5329 49.0964L77.4635 49.2345C77.3942 49.4417 77.3248 49.5798 77.2555 49.7869C77.1861 49.9251 77.1167 50.0632 77.0474 50.2013Z" fill="#11110A"/>
<path d="M103.612 34.9406L92.6532 41.0173C92.5838 39.7743 92.237 37.9099 91.4047 36.4598C90.1563 34.4573 88.3529 33.4215 86.2028 33.4215C83.3591 33.4215 80.5154 35.424 79.2669 38.2552C78.9201 39.0838 78.712 39.9815 78.6427 40.8792C75.3134 38.6695 71.9842 40.1887 70.7357 40.8792C70.597 39.6362 70.3196 37.8409 69.4873 36.5289C68.2388 34.5263 66.4355 33.4905 64.2853 33.4905C61.4416 33.4905 58.5979 35.4931 57.3494 38.3242C56.9333 39.36 56.6558 40.5339 56.6558 41.6388L51.4539 38.2552L42.4372 32.3167C42.4372 32.3167 42.4372 32.6619 42.5066 33.2834L51.3152 39.2219L56.7945 42.8817C56.8639 43.5722 57.0026 44.1937 57.2801 44.7461C58.7366 48.2678 61.2335 50.3394 64.0079 50.3394C64.6321 50.3394 65.3257 50.2013 65.9499 49.9941C69.1405 48.9583 70.9438 45.0223 70.8744 41.8459C71.6374 41.3625 75.1747 39.2219 78.712 41.915C78.712 42.9508 78.8507 43.9865 79.1975 44.8152C80.6541 48.3369 83.151 50.4084 85.9254 50.4084C86.5496 50.4084 87.2432 50.2703 87.8674 50.0632C90.9886 49.0964 92.8613 45.2295 92.7919 42.0531L103.681 36.736C103.543 35.9764 103.612 35.4931 103.612 34.9406ZM65.5338 49.2345C64.9096 49.4417 64.3547 49.5108 63.7998 49.5108C60.2625 49.5108 58.3898 45.92 57.6962 44.4009C57.0026 42.8127 57.072 40.5339 57.9043 38.6004C59.014 35.9764 61.5803 34.1811 64.216 34.1811C66.158 34.1811 67.7533 35.1478 68.863 36.9432C69.7647 38.3933 69.9728 40.4649 70.0421 41.5697C70.1115 44.539 68.3775 48.2678 65.5338 49.2345ZM87.5206 49.2345C86.8964 49.4417 86.3415 49.5108 85.7866 49.5108C82.2493 49.5108 80.3766 45.92 79.683 44.4009C78.9894 42.8127 79.0588 40.5339 79.8911 38.6004C81.0009 35.9764 83.5672 34.1811 86.2028 34.1811C88.1449 34.1811 89.7401 35.1478 90.8499 36.9432C91.7515 38.3933 91.9596 40.4649 92.029 41.5697C92.0983 44.539 90.3643 48.2678 87.5206 49.2345Z" fill="#11110A"/>
<path d="M110.27 28.9331C108.259 32.1095 105.97 33.8358 103.681 34.5954C98.2019 36.4598 92.8613 33.1453 92.8613 33.1453C87.1045 29.3474 81.7638 31.0046 81.7638 31.0046C67.9613 34.2501 57.1413 28.4497 52.5636 25.3423C54.0895 25.5495 55.5461 25.5495 57.0026 24.859C59.0834 23.9613 60.6786 22.3731 62.5513 20.992C67.4758 17.1941 73.3714 15.9512 78.9894 18.9895C84.122 21.7516 89.2546 25.2042 94.8033 26.9305C98.3406 28.0354 103.889 27.3449 106.109 24.0994C106.941 22.8564 107.219 21.3373 107.427 19.8872C107.496 19.4038 107.496 18.9895 107.427 18.5061C108.606 18.8514 109.161 19.1966 109.161 19.1966C113.322 21.7516 110.27 28.9331 110.27 28.9331Z" fill="#952E36"/>
<path d="M100.144 17.8847C95.4276 18.2299 90.9192 15.8131 90.6418 15.744C94.3872 16.5727 97.3003 16.3655 99.2423 15.9512C99.5197 16.5727 99.8665 17.1941 100.144 17.8847Z" fill="#952E36"/>
<path d="M103.473 37.3575C103.473 37.7028 103.404 38.048 103.334 38.3933L93.0693 48.3369L75.3134 65.2548L64.9095 62.0783L64.8402 62.0093L49.5118 43.5032L42.4372 34.9406C42.4372 34.5263 42.3679 34.112 42.3679 33.7668L49.8586 42.8126L65.2563 61.4569L75.1053 64.4952L92.5838 47.8535L103.473 37.3575Z" fill="#004CB3"/>
<path d="M94.734 63.8046C94.3872 64.219 93.971 64.6333 93.5548 65.0476C85.6479 72.5053 71.8455 72.7124 71.8455 72.7124C59.4995 71.9529 53.1879 66.5667 50.899 64.0118C50.2054 63.1832 49.8586 62.6998 49.8586 62.6998C49.8586 62.6308 49.7893 62.5617 49.7893 62.5617C51.3152 60.2139 53.7427 55.5183 53.9508 48.1988C53.9508 48.1988 71.4293 58.3495 92.9306 48.1988C92.8613 48.0606 91.0579 56.347 94.734 63.8046Z" fill="#99D3FF"/>
<path d="M94.734 63.8046C94.3872 64.219 93.971 64.6333 93.5549 65.0476C89.3239 57.728 91.266 50.2703 91.266 50.2703C72.1923 60.2139 55.1993 50.4775 55.1993 50.4775C55.1993 57.659 52.4943 62.0093 50.8297 64.0118C50.1361 63.1832 49.7893 62.6998 49.7893 62.6998C49.7893 62.6308 49.7199 62.5617 49.7199 62.5617C51.2458 60.2139 53.6734 55.5183 53.8815 48.1988C53.8815 48.1988 71.3599 58.3495 92.8613 48.1988C92.8613 48.0606 91.0579 56.347 94.734 63.8046Z" fill="white"/>
<path d="M73.7182 59.5234C76.007 59.5234 78.1571 59.3162 80.0992 58.971C81.0702 58.7638 81.9719 58.5566 82.8042 58.2804C83.2204 58.1423 83.6365 58.0733 83.9833 57.9352C84.3301 57.7971 84.7463 57.659 85.093 57.5209C85.7866 57.3137 86.4109 56.9684 86.8964 56.6922C87.4513 56.4851 87.8674 56.2088 88.2142 56.0017C88.9078 55.5874 89.3933 55.3802 89.3933 55.4493C89.3933 55.4493 89.0465 55.7945 88.3529 56.2089C88.0061 56.4851 87.59 56.7613 87.0351 57.0375C86.4802 57.3137 85.9254 57.659 85.2318 57.9352C84.885 58.0733 84.5382 58.2114 84.122 58.4185C83.7752 58.5566 83.2897 58.6947 82.8736 58.8328C82.0412 59.1091 81.0702 59.3162 80.0992 59.5924C78.1571 60.0067 75.9376 60.2139 73.6488 60.2139C71.3599 60.1448 69.1405 59.8686 67.1984 59.5234C66.2274 59.3162 65.3257 59.1091 64.424 58.8328C64.0079 58.6947 63.5917 58.5566 63.1756 58.4876C62.7594 58.3495 62.4126 58.2114 62.0658 58.0733C61.3722 57.8661 60.748 57.5899 60.1931 57.3137C59.6383 57.1065 59.1527 56.8994 58.8059 56.6922C58.043 56.347 57.6268 56.0707 57.6962 56.0707C57.7656 56.0017 59.4302 56.7613 62.2739 57.728C62.6207 57.8661 63.0369 57.9352 63.3836 58.0733C63.7998 58.2114 64.216 58.2804 64.6321 58.4185C65.4644 58.6947 66.3661 58.8328 67.3371 59.04C69.3485 59.1781 71.4987 59.4543 73.7182 59.5234Z" fill="#0092FF"/>
<path d="M73.5794 64.3571C75.3828 64.288 77.1168 64.0118 78.6427 63.7356C79.4056 63.5284 80.1686 63.3903 80.7928 63.1832C81.4864 62.976 82.1106 62.7688 82.6655 62.5617C84.9543 61.7331 86.2722 61.0425 86.2722 61.1116C86.2722 61.1806 85.9947 61.3187 85.3705 61.664C85.0931 61.8021 84.7463 62.0093 84.2607 62.2164C83.8446 62.4236 83.3591 62.6998 82.7348 62.907C82.18 63.1141 81.5557 63.3903 80.8621 63.5975C80.1686 63.8046 79.475 64.0118 78.6427 64.219C77.0474 64.5642 75.3134 64.8404 73.4407 64.9095C71.568 64.9785 69.834 64.7714 68.2388 64.4952C67.4758 64.3571 66.7129 64.1499 66.0193 63.9427C65.3257 63.7356 64.7015 63.5284 64.1466 63.3213C63.5917 63.1141 63.1062 62.8379 62.6207 62.6998C62.2046 62.4926 61.7884 62.2855 61.511 62.1474C60.9561 61.8021 60.6093 61.5949 60.6093 61.5949C60.6787 61.5259 61.9965 62.2164 64.216 62.976C64.7708 63.1832 65.3951 63.3903 66.0887 63.5284C66.7823 63.7356 67.4758 63.8737 68.3082 64.0118C70.0421 64.288 71.7761 64.4261 73.5794 64.3571Z" fill="#0092FF"/>
<path d="M74.9666 69.0526C76.9087 68.8455 78.712 68.5693 80.3766 68.155C81.9719 67.6716 83.4284 67.1882 84.6075 66.6358C86.8964 65.531 88.0755 64.4261 88.1448 64.5642C88.1448 64.5642 87.8674 64.8404 87.3125 65.3929C87.0351 65.6691 86.6883 65.8762 86.2722 66.1524C86.0641 66.2905 85.856 66.4286 85.5786 66.6358C85.3011 66.7739 85.0237 66.912 84.7463 67.0501C83.6365 67.6716 82.18 68.224 80.5153 68.7074C78.8507 69.1907 76.978 69.536 75.036 69.6741C73.0246 69.8122 71.1519 69.8122 69.4179 69.6051C67.6839 69.3979 66.158 69.0526 64.9789 68.5693C64.7015 68.4312 64.3547 68.3621 64.0772 68.2931C63.7998 68.155 63.5917 68.0169 63.3143 67.9478C62.8288 67.7406 62.4126 67.5335 62.1352 67.3263C61.511 66.912 61.2335 66.7049 61.2335 66.6358C61.3029 66.4977 62.6207 67.4644 65.0483 68.224C66.2274 68.6383 67.7533 68.8455 69.4179 69.0526C71.2212 69.1907 73.0939 69.1907 74.9666 69.0526Z" fill="#0092FF"/>
<path d="M70.1808 91.0804L73.5794 85.28L72.9552 87.6969L70.7357 96.3284L61.8578 81.275C61.8578 81.275 62.0658 78.8581 63.6611 77.408C63.5917 77.5461 62.6207 78.7891 63.2449 81.0678L70.1808 91.0804Z" fill="#0092FF"/>
<path d="M82.5961 80.1011L78.2959 95.0164L74.6198 87.4206L73.5794 85.28L78.0878 89.5613L80.9315 79.7558C80.9315 79.7558 80.8621 77.2699 78.3652 74.8531C81.5557 76.096 82.5961 80.1011 82.5961 80.1011Z" fill="#0092FF"/>
<path d="M65.187 145.356L63.1756 144.803C65.1176 139.486 64.9789 133.686 64.7708 131.131L65.5338 130.855C65.6031 130.924 66.8516 139.279 65.187 145.356Z" fill="#11110A"/>
<path d="M112.351 123.328C110.27 121.395 107.843 119.047 105.901 116.906L104.652 84.1061L112.351 123.328Z" fill="#99D3FF"/>
<path d="M39.5241 104.2L36.6804 119.668L29.8139 119.392L36.3336 121.809L39.8709 116.216L39.5241 104.2Z" fill="#99D3FF"/>
<path d="M57.4188 93.6354L57.3494 94.1188L45.2116 81.6202C46.1132 81.4131 47.0149 81.2059 47.9859 81.0678L57.3494 93.5663L57.4188 93.6354Z" fill="#99D3FF"/>
</g>
<path d="M195.87 50L191.835 45.335V50H190.125V39.575H191.835V44.33L195.885 39.575H198.03L193.5 44.795L198.105 50H195.87ZM203.787 41.6C204.437 41.6 205.017 41.735 205.527 42.005C206.047 42.275 206.452 42.675 206.742 43.205C207.032 43.735 207.177 44.375 207.177 45.125V50H205.482V45.38C205.482 44.64 205.297 44.075 204.927 43.685C204.557 43.285 204.052 43.085 203.412 43.085C202.772 43.085 202.262 43.285 201.882 43.685C201.512 44.075 201.327 44.64 201.327 45.38V50H199.617V41.735H201.327V42.68C201.607 42.34 201.962 42.075 202.392 41.885C202.832 41.695 203.297 41.6 203.787 41.6ZM212.943 50.135C212.163 50.135 211.458 49.96 210.828 49.61C210.198 49.25 209.703 48.75 209.343 48.11C208.983 47.46 208.803 46.71 208.803 45.86C208.803 45.02 208.988 44.275 209.358 43.625C209.728 42.975 210.233 42.475 210.873 42.125C211.513 41.775 212.228 41.6 213.018 41.6C213.808 41.6 214.523 41.775 215.163 42.125C215.803 42.475 216.308 42.975 216.678 43.625C217.048 44.275 217.233 45.02 217.233 45.86C217.233 46.7 217.043 47.445 216.663 48.095C216.283 48.745 215.763 49.25 215.103 49.61C214.453 49.96 213.733 50.135 212.943 50.135ZM212.943 48.65C213.383 48.65 213.793 48.545 214.173 48.335C214.563 48.125 214.878 47.81 215.118 47.39C215.358 46.97 215.478 46.46 215.478 45.86C215.478 45.26 215.363 44.755 215.133 44.345C214.903 43.925 214.598 43.61 214.218 43.4C213.838 43.19 213.428 43.085 212.988 43.085C212.548 43.085 212.138 43.19 211.758 43.4C211.388 43.61 211.093 43.925 210.873 44.345C210.653 44.755 210.543 45.26 210.543 45.86C210.543 46.75 210.768 47.44 211.218 47.93C211.678 48.41 212.253 48.65 212.943 48.65ZM230.024 41.735L227.459 50H225.659L223.994 43.895L222.329 50H220.529L217.949 41.735H219.689L221.414 48.38L223.169 41.735H224.954L226.634 48.35L228.344 41.735H230.024ZM238.198 50.135C237.548 50.135 236.963 50.02 236.443 49.79C235.933 49.55 235.528 49.23 235.228 48.83C234.928 48.42 234.768 47.965 234.748 47.465H236.518C236.548 47.815 236.713 48.11 237.013 48.35C237.323 48.58 237.708 48.695 238.168 48.695C238.648 48.695 239.018 48.605 239.278 48.425C239.548 48.235 239.683 47.995 239.683 47.705C239.683 47.395 239.533 47.165 239.233 47.015C238.943 46.865 238.478 46.7 237.838 46.52C237.218 46.35 236.713 46.185 236.323 46.025C235.933 45.865 235.593 45.62 235.303 45.29C235.023 44.96 234.883 44.525 234.883 43.985C234.883 43.545 235.013 43.145 235.273 42.785C235.533 42.415 235.903 42.125 236.383 41.915C236.873 41.705 237.433 41.6 238.063 41.6C239.003 41.6 239.758 41.84 240.328 42.32C240.908 42.79 241.218 43.435 241.258 44.255H239.548C239.518 43.885 239.368 43.59 239.098 43.37C238.828 43.15 238.463 43.04 238.003 43.04C237.553 43.04 237.208 43.125 236.968 43.295C236.728 43.465 236.608 43.69 236.608 43.97C236.608 44.19 236.688 44.375 236.848 44.525C237.008 44.675 237.203 44.795 237.433 44.885C237.663 44.965 238.003 45.07 238.453 45.2C239.053 45.36 239.543 45.525 239.923 45.695C240.313 45.855 240.648 46.095 240.928 46.415C241.208 46.735 241.353 47.16 241.363 47.69C241.363 48.16 241.233 48.58 240.973 48.95C240.713 49.32 240.343 49.61 239.863 49.82C239.393 50.03 238.838 50.135 238.198 50.135ZM242.641 45.83C242.641 45 242.811 44.265 243.151 43.625C243.501 42.985 243.971 42.49 244.561 42.14C245.161 41.78 245.821 41.6 246.541 41.6C247.191 41.6 247.756 41.73 248.236 41.99C248.726 42.24 249.116 42.555 249.406 42.935V41.735H251.131V50H249.406V48.77C249.116 49.16 248.721 49.485 248.221 49.745C247.721 50.005 247.151 50.135 246.511 50.135C245.801 50.135 245.151 49.955 244.561 49.595C243.971 49.225 243.501 48.715 243.151 48.065C242.811 47.405 242.641 46.66 242.641 45.83ZM249.406 45.86C249.406 45.29 249.286 44.795 249.046 44.375C248.816 43.955 248.511 43.635 248.131 43.415C247.751 43.195 247.341 43.085 246.901 43.085C246.461 43.085 246.051 43.195 245.671 43.415C245.291 43.625 244.981 43.94 244.741 44.36C244.511 44.77 244.396 45.26 244.396 45.83C244.396 46.4 244.511 46.9 244.741 47.33C244.981 47.76 245.291 48.09 245.671 48.32C246.061 48.54 246.471 48.65 246.901 48.65C247.341 48.65 247.751 48.54 248.131 48.32C248.511 48.1 248.816 47.78 249.046 47.36C249.286 46.93 249.406 46.43 249.406 45.86ZM256.842 43.13H255.312V50H253.587V43.13H252.612V41.735H253.587V41.15C253.587 40.2 253.837 39.51 254.337 39.08C254.847 38.64 255.642 38.42 256.722 38.42V39.845C256.202 39.845 255.837 39.945 255.627 40.145C255.417 40.335 255.312 40.67 255.312 41.15V41.735H256.842V43.13ZM265.932 45.665C265.932 45.975 265.912 46.255 265.872 46.505H259.557C259.607 47.165 259.852 47.695 260.292 48.095C260.732 48.495 261.272 48.695 261.912 48.695C262.832 48.695 263.482 48.31 263.862 47.54H265.707C265.457 48.3 265.002 48.925 264.342 49.415C263.692 49.895 262.882 50.135 261.912 50.135C261.122 50.135 260.412 49.96 259.782 49.61C259.162 49.25 258.672 48.75 258.312 48.11C257.962 47.46 257.787 46.71 257.787 45.86C257.787 45.01 257.957 44.265 258.297 43.625C258.647 42.975 259.132 42.475 259.752 42.125C260.382 41.775 261.102 41.6 261.912 41.6C262.692 41.6 263.387 41.77 263.997 42.11C264.607 42.45 265.082 42.93 265.422 43.55C265.762 44.16 265.932 44.865 265.932 45.665ZM264.147 45.125C264.137 44.495 263.912 43.99 263.472 43.61C263.032 43.23 262.487 43.04 261.837 43.04C261.247 43.04 260.742 43.23 260.322 43.61C259.902 43.98 259.652 44.485 259.572 45.125H264.147ZM269.61 43.13V47.705C269.61 48.015 269.68 48.24 269.82 48.38C269.97 48.51 270.22 48.575 270.57 48.575H271.62V50H270.27C269.5 50 268.91 49.82 268.5 49.46C268.09 49.1 267.885 48.515 267.885 47.705V43.13H266.91V41.735H267.885V39.68H269.61V41.735H271.62V43.13H269.61ZM280.636 41.735L275.566 53.885H273.796L275.476 49.865L272.221 41.735H274.126L276.451 48.035L278.866 41.735H280.636ZM287.818 43.13V47.705C287.818 48.015 287.888 48.24 288.028 48.38C288.178 48.51 288.428 48.575 288.778 48.575H289.828V50H288.478C287.708 50 287.118 49.82 286.708 49.46C286.298 49.1 286.093 48.515 286.093 47.705V43.13H285.118V41.735H286.093V39.68H287.818V41.735H289.828V43.13H287.818ZM292.274 40.64C291.964 40.64 291.704 40.535 291.494 40.325C291.284 40.115 291.179 39.855 291.179 39.545C291.179 39.235 291.284 38.975 291.494 38.765C291.704 38.555 291.964 38.45 292.274 38.45C292.574 38.45 292.829 38.555 293.039 38.765C293.249 38.975 293.354 39.235 293.354 39.545C293.354 39.855 293.249 40.115 293.039 40.325C292.829 40.535 292.574 40.64 292.274 40.64ZM293.114 41.735V50H291.404V41.735H293.114ZM297.069 42.95C297.359 42.57 297.754 42.25 298.254 41.99C298.754 41.73 299.319 41.6 299.949 41.6C300.669 41.6 301.324 41.78 301.914 42.14C302.514 42.49 302.984 42.985 303.324 43.625C303.664 44.265 303.834 45 303.834 45.83C303.834 46.66 303.664 47.405 303.324 48.065C302.984 48.715 302.514 49.225 301.914 49.595C301.324 49.955 300.669 50.135 299.949 50.135C299.319 50.135 298.759 50.01 298.269 49.76C297.779 49.5 297.379 49.18 297.069 48.8V53.93H295.359V41.735H297.069V42.95ZM302.094 45.83C302.094 45.26 301.974 44.77 301.734 44.36C301.504 43.94 301.194 43.625 300.804 43.415C300.424 43.195 300.014 43.085 299.574 43.085C299.144 43.085 298.734 43.195 298.344 43.415C297.964 43.635 297.654 43.955 297.414 44.375C297.184 44.795 297.069 45.29 297.069 45.86C297.069 46.43 297.184 46.93 297.414 47.36C297.654 47.78 297.964 48.1 298.344 48.32C298.734 48.54 299.144 48.65 299.574 48.65C300.014 48.65 300.424 48.54 300.804 48.32C301.194 48.09 301.504 47.76 301.734 47.33C301.974 46.9 302.094 46.4 302.094 45.83ZM308.525 50.135C307.875 50.135 307.29 50.02 306.77 49.79C306.26 49.55 305.855 49.23 305.555 48.83C305.255 48.42 305.095 47.965 305.075 47.465H306.845C306.875 47.815 307.04 48.11 307.34 48.35C307.65 48.58 308.035 48.695 308.495 48.695C308.975 48.695 309.345 48.605 309.605 48.425C309.875 48.235 310.01 47.995 310.01 47.705C310.01 47.395 309.86 47.165 309.56 47.015C309.27 46.865 308.805 46.7 308.165 46.52C307.545 46.35 307.04 46.185 306.65 46.025C306.26 45.865 305.92 45.62 305.63 45.29C305.35 44.96 305.21 44.525 305.21 43.985C305.21 43.545 305.34 43.145 305.6 42.785C305.86 42.415 306.23 42.125 306.71 41.915C307.2 41.705 307.76 41.6 308.39 41.6C309.33 41.6 310.085 41.84 310.655 42.32C311.235 42.79 311.545 43.435 311.585 44.255H309.875C309.845 43.885 309.695 43.59 309.425 43.37C309.155 43.15 308.79 43.04 308.33 43.04C307.88 43.04 307.535 43.125 307.295 43.295C307.055 43.465 306.935 43.69 306.935 43.97C306.935 44.19 307.015 44.375 307.175 44.525C307.335 44.675 307.53 44.795 307.76 44.885C307.99 44.965 308.33 45.07 308.78 45.2C309.38 45.36 309.87 45.525 310.25 45.695C310.64 45.855 310.975 46.095 311.255 46.415C311.535 46.735 311.68 47.16 311.69 47.69C311.69 48.16 311.56 48.58 311.3 48.95C311.04 49.32 310.67 49.61 310.19 49.82C309.72 50.03 309.165 50.135 308.525 50.135ZM316.865 45.83C316.865 45 317.035 44.265 317.375 43.625C317.725 42.985 318.195 42.49 318.785 42.14C319.385 41.78 320.045 41.6 320.765 41.6C321.415 41.6 321.98 41.73 322.46 41.99C322.95 42.24 323.34 42.555 323.63 42.935V41.735H325.355V50H323.63V48.77C323.34 49.16 322.945 49.485 322.445 49.745C321.945 50.005 321.375 50.135 320.735 50.135C320.025 50.135 319.375 49.955 318.785 49.595C318.195 49.225 317.725 48.715 317.375 48.065C317.035 47.405 316.865 46.66 316.865 45.83ZM323.63 45.86C323.63 45.29 323.51 44.795 323.27 44.375C323.04 43.955 322.735 43.635 322.355 43.415C321.975 43.195 321.565 43.085 321.125 43.085C320.685 43.085 320.275 43.195 319.895 43.415C319.515 43.625 319.205 43.94 318.965 44.36C318.735 44.77 318.62 45.26 318.62 45.83C318.62 46.4 318.735 46.9 318.965 47.33C319.205 47.76 319.515 48.09 319.895 48.32C320.285 48.54 320.695 48.65 321.125 48.65C321.565 48.65 321.975 48.54 322.355 48.32C322.735 48.1 323.04 47.78 323.27 47.36C323.51 46.93 323.63 46.43 323.63 45.86ZM331.771 41.6C332.421 41.6 333.001 41.735 333.511 42.005C334.031 42.275 334.436 42.675 334.726 43.205C335.016 43.735 335.161 44.375 335.161 45.125V50H333.466V45.38C333.466 44.64 333.281 44.075 332.911 43.685C332.541 43.285 332.036 43.085 331.396 43.085C330.756 43.085 330.246 43.285 329.866 43.685C329.496 44.075 329.311 44.64 329.311 45.38V50H327.601V41.735H329.311V42.68C329.591 42.34 329.946 42.075 330.376 41.885C330.816 41.695 331.281 41.6 331.771 41.6ZM336.772 45.83C336.772 45 336.942 44.265 337.282 43.625C337.632 42.985 338.102 42.49 338.692 42.14C339.292 41.78 339.957 41.6 340.687 41.6C341.227 41.6 341.757 41.72 342.277 41.96C342.807 42.19 343.227 42.5 343.537 42.89V38.9H345.262V50H343.537V48.755C343.257 49.155 342.867 49.485 342.367 49.745C341.877 50.005 341.312 50.135 340.672 50.135C339.952 50.135 339.292 49.955 338.692 49.595C338.102 49.225 337.632 48.715 337.282 48.065C336.942 47.405 336.772 46.66 336.772 45.83ZM343.537 45.86C343.537 45.29 343.417 44.795 343.177 44.375C342.947 43.955 342.642 43.635 342.262 43.415C341.882 43.195 341.472 43.085 341.032 43.085C340.592 43.085 340.182 43.195 339.802 43.415C339.422 43.625 339.112 43.94 338.872 44.36C338.642 44.77 338.527 45.26 338.527 45.83C338.527 46.4 338.642 46.9 338.872 47.33C339.112 47.76 339.422 48.09 339.802 48.32C340.192 48.54 340.602 48.65 341.032 48.65C341.472 48.65 341.882 48.54 342.262 48.32C342.642 48.1 342.947 47.78 343.177 47.36C343.417 46.93 343.537 46.43 343.537 45.86ZM191.835 65.95C192.125 65.57 192.52 65.25 193.02 64.99C193.52 64.73 194.085 64.6 194.715 64.6C195.435 64.6 196.09 64.78 196.68 65.14C197.28 65.49 197.75 65.985 198.09 66.625C198.43 67.265 198.6 68 198.6 68.83C198.6 69.66 198.43 70.405 198.09 71.065C197.75 71.715 197.28 72.225 196.68 72.595C196.09 72.955 195.435 73.135 194.715 73.135C194.085 73.135 193.525 73.01 193.035 72.76C192.545 72.5 192.145 72.18 191.835 71.8V76.93H190.125V64.735H191.835V65.95ZM196.86 68.83C196.86 68.26 196.74 67.77 196.5 67.36C196.27 66.94 195.96 66.625 195.57 66.415C195.19 66.195 194.78 66.085 194.34 66.085C193.91 66.085 193.5 66.195 193.11 66.415C192.73 66.635 192.42 66.955 192.18 67.375C191.95 67.795 191.835 68.29 191.835 68.86C191.835 69.43 191.95 69.93 192.18 70.36C192.42 70.78 192.73 71.1 193.11 71.32C193.5 71.54 193.91 71.65 194.34 71.65C194.78 71.65 195.19 71.54 195.57 71.32C195.96 71.09 196.27 70.76 196.5 70.33C196.74 69.9 196.86 69.4 196.86 68.83ZM202.001 65.935C202.251 65.515 202.581 65.19 202.991 64.96C203.411 64.72 203.906 64.6 204.476 64.6V66.37H204.041C203.371 66.37 202.861 66.54 202.511 66.88C202.171 67.22 202.001 67.81 202.001 68.65V73H200.291V64.735H202.001V65.935ZM213.623 68.665C213.623 68.975 213.603 69.255 213.563 69.505H207.248C207.298 70.165 207.543 70.695 207.983 71.095C208.423 71.495 208.963 71.695 209.603 71.695C210.523 71.695 211.173 71.31 211.553 70.54H213.398C213.148 71.3 212.693 71.925 212.033 72.415C211.383 72.895 210.573 73.135 209.603 73.135C208.813 73.135 208.103 72.96 207.473 72.61C206.853 72.25 206.363 71.75 206.003 71.11C205.653 70.46 205.478 69.71 205.478 68.86C205.478 68.01 205.648 67.265 205.988 66.625C206.338 65.975 206.823 65.475 207.443 65.125C208.073 64.775 208.793 64.6 209.603 64.6C210.383 64.6 211.078 64.77 211.688 65.11C212.298 65.45 212.773 65.93 213.113 66.55C213.453 67.16 213.623 67.865 213.623 68.665ZM211.838 68.125C211.828 67.495 211.603 66.99 211.163 66.61C210.723 66.23 210.178 66.04 209.528 66.04C208.938 66.04 208.433 66.23 208.013 66.61C207.593 66.98 207.343 67.485 207.263 68.125H211.838ZM214.736 68.86C214.736 68.01 214.906 67.265 215.246 66.625C215.596 65.975 216.076 65.475 216.686 65.125C217.296 64.775 217.996 64.6 218.786 64.6C219.786 64.6 220.611 64.84 221.261 65.32C221.921 65.79 222.366 66.465 222.596 67.345H220.751C220.601 66.935 220.361 66.615 220.031 66.385C219.701 66.155 219.286 66.04 218.786 66.04C218.086 66.04 217.526 66.29 217.106 66.79C216.696 67.28 216.491 67.97 216.491 68.86C216.491 69.75 216.696 70.445 217.106 70.945C217.526 71.445 218.086 71.695 218.786 71.695C219.776 71.695 220.431 71.26 220.751 70.39H222.596C222.356 71.23 221.906 71.9 221.246 72.4C220.586 72.89 219.766 73.135 218.786 73.135C217.996 73.135 217.296 72.96 216.686 72.61C216.076 72.25 215.596 71.75 215.246 71.11C214.906 70.46 214.736 69.71 214.736 68.86ZM223.73 68.83C223.73 68 223.9 67.265 224.24 66.625C224.59 65.985 225.06 65.49 225.65 65.14C226.25 64.78 226.91 64.6 227.63 64.6C228.28 64.6 228.845 64.73 229.325 64.99C229.815 65.24 230.205 65.555 230.495 65.935V64.735H232.22V73H230.495V71.77C230.205 72.16 229.81 72.485 229.31 72.745C228.81 73.005 228.24 73.135 227.6 73.135C226.89 73.135 226.24 72.955 225.65 72.595C225.06 72.225 224.59 71.715 224.24 71.065C223.9 70.405 223.73 69.66 223.73 68.83ZM230.495 68.86C230.495 68.29 230.375 67.795 230.135 67.375C229.905 66.955 229.6 66.635 229.22 66.415C228.84 66.195 228.43 66.085 227.99 66.085C227.55 66.085 227.14 66.195 226.76 66.415C226.38 66.625 226.07 66.94 225.83 67.36C225.6 67.77 225.485 68.26 225.485 68.83C225.485 69.4 225.6 69.9 225.83 70.33C226.07 70.76 226.38 71.09 226.76 71.32C227.15 71.54 227.56 71.65 227.99 71.65C228.43 71.65 228.84 71.54 229.22 71.32C229.6 71.1 229.905 70.78 230.135 70.36C230.375 69.93 230.495 69.43 230.495 68.86ZM241.951 64.735V73H240.241V72.025C239.971 72.365 239.616 72.635 239.176 72.835C238.746 73.025 238.286 73.12 237.796 73.12C237.146 73.12 236.561 72.985 236.041 72.715C235.531 72.445 235.126 72.045 234.826 71.515C234.536 70.985 234.391 70.345 234.391 69.595V64.735H236.086V69.34C236.086 70.08 236.271 70.65 236.641 71.05C237.011 71.44 237.516 71.635 238.156 71.635C238.796 71.635 239.301 71.44 239.671 71.05C240.051 70.65 240.241 70.08 240.241 69.34V64.735H241.951ZM246.202 66.13V70.705C246.202 71.015 246.272 71.24 246.412 71.38C246.562 71.51 246.812 71.575 247.162 71.575H248.212V73H246.862C246.092 73 245.502 72.82 245.092 72.46C244.682 72.1 244.477 71.515 244.477 70.705V66.13H243.502V64.735H244.477V62.68H246.202V64.735H248.212V66.13H246.202ZM250.658 63.64C250.348 63.64 250.088 63.535 249.878 63.325C249.668 63.115 249.563 62.855 249.563 62.545C249.563 62.235 249.668 61.975 249.878 61.765C250.088 61.555 250.348 61.45 250.658 61.45C250.958 61.45 251.213 61.555 251.423 61.765C251.633 61.975 251.738 62.235 251.738 62.545C251.738 62.855 251.633 63.115 251.423 63.325C251.213 63.535 250.958 63.64 250.658 63.64ZM251.498 64.735V73H249.788V64.735H251.498ZM257.328 73.135C256.548 73.135 255.843 72.96 255.213 72.61C254.583 72.25 254.088 71.75 253.728 71.11C253.368 70.46 253.188 69.71 253.188 68.86C253.188 68.02 253.373 67.275 253.743 66.625C254.113 65.975 254.618 65.475 255.258 65.125C255.898 64.775 256.613 64.6 257.403 64.6C258.193 64.6 258.908 64.775 259.548 65.125C260.188 65.475 260.693 65.975 261.063 66.625C261.433 67.275 261.618 68.02 261.618 68.86C261.618 69.7 261.428 70.445 261.048 71.095C260.668 71.745 260.148 72.25 259.488 72.61C258.838 72.96 258.118 73.135 257.328 73.135ZM257.328 71.65C257.768 71.65 258.178 71.545 258.558 71.335C258.948 71.125 259.263 70.81 259.503 70.39C259.743 69.97 259.863 69.46 259.863 68.86C259.863 68.26 259.748 67.755 259.518 67.345C259.288 66.925 258.983 66.61 258.603 66.4C258.223 66.19 257.813 66.085 257.373 66.085C256.933 66.085 256.523 66.19 256.143 66.4C255.773 66.61 255.478 66.925 255.258 67.345C255.038 67.755 254.928 68.26 254.928 68.86C254.928 69.75 255.153 70.44 255.603 70.93C256.063 71.41 256.638 71.65 257.328 71.65ZM267.479 64.6C268.129 64.6 268.709 64.735 269.219 65.005C269.739 65.275 270.144 65.675 270.434 66.205C270.724 66.735 270.869 67.375 270.869 68.125V73H269.174V68.38C269.174 67.64 268.989 67.075 268.619 66.685C268.249 66.285 267.744 66.085 267.104 66.085C266.464 66.085 265.954 66.285 265.574 66.685C265.204 67.075 265.019 67.64 265.019 68.38V73H263.309V64.735H265.019V65.68C265.299 65.34 265.654 65.075 266.084 64.885C266.524 64.695 266.989 64.6 267.479 64.6ZM276.05 73.135C275.4 73.135 274.815 73.02 274.295 72.79C273.785 72.55 273.38 72.23 273.08 71.83C272.78 71.42 272.62 70.965 272.6 70.465H274.37C274.4 70.815 274.565 71.11 274.865 71.35C275.175 71.58 275.56 71.695 276.02 71.695C276.5 71.695 276.87 71.605 277.13 71.425C277.4 71.235 277.535 70.995 277.535 70.705C277.535 70.395 277.385 70.165 277.085 70.015C276.795 69.865 276.33 69.7 275.69 69.52C275.07 69.35 274.565 69.185 274.175 69.025C273.785 68.865 273.445 68.62 273.155 68.29C272.875 67.96 272.735 67.525 272.735 66.985C272.735 66.545 272.865 66.145 273.125 65.785C273.385 65.415 273.755 65.125 274.235 64.915C274.725 64.705 275.285 64.6 275.915 64.6C276.855 64.6 277.61 64.84 278.18 65.32C278.76 65.79 279.07 66.435 279.11 67.255H277.4C277.37 66.885 277.22 66.59 276.95 66.37C276.68 66.15 276.315 66.04 275.855 66.04C275.405 66.04 275.06 66.125 274.82 66.295C274.58 66.465 274.46 66.69 274.46 66.97C274.46 67.19 274.54 67.375 274.7 67.525C274.86 67.675 275.055 67.795 275.285 67.885C275.515 67.965 275.855 68.07 276.305 68.2C276.905 68.36 277.395 68.525 277.775 68.695C278.165 68.855 278.5 69.095 278.78 69.415C279.06 69.735 279.205 70.16 279.215 70.69C279.215 71.16 279.085 71.58 278.825 71.95C278.565 72.32 278.195 72.61 277.715 72.82C277.245 73.03 276.69 73.135 276.05 73.135ZM288.424 66.13H286.894V73H285.169V66.13H284.194V64.735H285.169V64.15C285.169 63.2 285.419 62.51 285.919 62.08C286.429 61.64 287.224 61.42 288.304 61.42V62.845C287.784 62.845 287.419 62.945 287.209 63.145C286.999 63.335 286.894 63.67 286.894 64.15V64.735H288.424V66.13ZM291.649 65.935C291.899 65.515 292.229 65.19 292.639 64.96C293.059 64.72 293.554 64.6 294.124 64.6V66.37H293.689C293.019 66.37 292.509 66.54 292.159 66.88C291.819 67.22 291.649 67.81 291.649 68.65V73H289.939V64.735H291.649V65.935ZM299.281 73.135C298.501 73.135 297.796 72.96 297.166 72.61C296.536 72.25 296.041 71.75 295.681 71.11C295.321 70.46 295.141 69.71 295.141 68.86C295.141 68.02 295.326 67.275 295.696 66.625C296.066 65.975 296.571 65.475 297.211 65.125C297.851 64.775 298.566 64.6 299.356 64.6C300.146 64.6 300.861 64.775 301.501 65.125C302.141 65.475 302.646 65.975 303.016 66.625C303.386 67.275 303.571 68.02 303.571 68.86C303.571 69.7 303.381 70.445 303.001 71.095C302.621 71.745 302.101 72.25 301.441 72.61C300.791 72.96 300.071 73.135 299.281 73.135ZM299.281 71.65C299.721 71.65 300.131 71.545 300.511 71.335C300.901 71.125 301.216 70.81 301.456 70.39C301.696 69.97 301.816 69.46 301.816 68.86C301.816 68.26 301.701 67.755 301.471 67.345C301.241 66.925 300.936 66.61 300.556 66.4C300.176 66.19 299.766 66.085 299.326 66.085C298.886 66.085 298.476 66.19 298.096 66.4C297.726 66.61 297.431 66.925 297.211 67.345C296.991 67.755 296.881 68.26 296.881 68.86C296.881 69.75 297.106 70.44 297.556 70.93C298.016 71.41 298.591 71.65 299.281 71.65ZM315.267 64.6C315.917 64.6 316.497 64.735 317.007 65.005C317.527 65.275 317.932 65.675 318.222 66.205C318.522 66.735 318.672 67.375 318.672 68.125V73H316.977V68.38C316.977 67.64 316.792 67.075 316.422 66.685C316.052 66.285 315.547 66.085 314.907 66.085C314.267 66.085 313.757 66.285 313.377 66.685C313.007 67.075 312.822 67.64 312.822 68.38V73H311.127V68.38C311.127 67.64 310.942 67.075 310.572 66.685C310.202 66.285 309.697 66.085 309.057 66.085C308.417 66.085 307.907 66.285 307.527 66.685C307.157 67.075 306.972 67.64 306.972 68.38V73H305.262V64.735H306.972V65.68C307.252 65.34 307.607 65.075 308.037 64.885C308.467 64.695 308.927 64.6 309.417 64.6C310.077 64.6 310.667 64.74 311.187 65.02C311.707 65.3 312.107 65.705 312.387 66.235C312.637 65.735 313.027 65.34 313.557 65.05C314.087 64.75 314.657 64.6 315.267 64.6ZM192.12 89.13V93.705C192.12 94.015 192.19 94.24 192.33 94.38C192.48 94.51 192.73 94.575 193.08 94.575H194.13V96H192.78C192.01 96 191.42 95.82 191.01 95.46C190.6 95.1 190.395 94.515 190.395 93.705V89.13H189.42V87.735H190.395V85.68H192.12V87.735H194.13V89.13H192.12ZM199.291 96.135C198.511 96.135 197.806 95.96 197.176 95.61C196.546 95.25 196.051 94.75 195.691 94.11C195.331 93.46 195.151 92.71 195.151 91.86C195.151 91.02 195.336 90.275 195.706 89.625C196.076 88.975 196.581 88.475 197.221 88.125C197.861 87.775 198.576 87.6 199.366 87.6C200.156 87.6 200.871 87.775 201.511 88.125C202.151 88.475 202.656 88.975 203.026 89.625C203.396 90.275 203.581 91.02 203.581 91.86C203.581 92.7 203.391 93.445 203.011 94.095C202.631 94.745 202.111 95.25 201.451 95.61C200.801 95.96 200.081 96.135 199.291 96.135ZM199.291 94.65C199.731 94.65 200.141 94.545 200.521 94.335C200.911 94.125 201.226 93.81 201.466 93.39C201.706 92.97 201.826 92.46 201.826 91.86C201.826 91.26 201.711 90.755 201.481 90.345C201.251 89.925 200.946 89.61 200.566 89.4C200.186 89.19 199.776 89.085 199.336 89.085C198.896 89.085 198.486 89.19 198.106 89.4C197.736 89.61 197.441 89.925 197.221 90.345C197.001 90.755 196.891 91.26 196.891 91.86C196.891 92.75 197.116 93.44 197.566 93.93C198.026 94.41 198.601 94.65 199.291 94.65ZM206.981 88.95C207.271 88.57 207.666 88.25 208.166 87.99C208.666 87.73 209.231 87.6 209.861 87.6C210.581 87.6 211.236 87.78 211.826 88.14C212.426 88.49 212.896 88.985 213.236 89.625C213.576 90.265 213.746 91 213.746 91.83C213.746 92.66 213.576 93.405 213.236 94.065C212.896 94.715 212.426 95.225 211.826 95.595C211.236 95.955 210.581 96.135 209.861 96.135C209.231 96.135 208.671 96.01 208.181 95.76C207.691 95.5 207.291 95.18 206.981 94.8V99.93H205.271V87.735H206.981V88.95ZM212.006 91.83C212.006 91.26 211.886 90.77 211.646 90.36C211.416 89.94 211.106 89.625 210.716 89.415C210.336 89.195 209.926 89.085 209.486 89.085C209.056 89.085 208.646 89.195 208.256 89.415C207.876 89.635 207.566 89.955 207.326 90.375C207.096 90.795 206.981 91.29 206.981 91.86C206.981 92.43 207.096 92.93 207.326 93.36C207.566 93.78 207.876 94.1 208.256 94.32C208.646 94.54 209.056 94.65 209.486 94.65C209.926 94.65 210.336 94.54 210.716 94.32C211.106 94.09 211.416 93.76 211.646 93.33C211.886 92.9 212.006 92.4 212.006 91.83ZM222.739 85.575C223.849 85.575 224.819 85.79 225.649 86.22C226.489 86.64 227.134 87.25 227.584 88.05C228.044 88.84 228.274 89.765 228.274 90.825C228.274 91.885 228.044 92.805 227.584 93.585C227.134 94.365 226.489 94.965 225.649 95.385C224.819 95.795 223.849 96 222.739 96H219.334V85.575H222.739ZM222.739 94.605C223.959 94.605 224.894 94.275 225.544 93.615C226.194 92.955 226.519 92.025 226.519 90.825C226.519 89.615 226.194 88.67 225.544 87.99C224.894 87.31 223.959 86.97 222.739 86.97H221.044V94.605H222.739ZM233.554 96.135C232.774 96.135 232.069 95.96 231.439 95.61C230.809 95.25 230.314 94.75 229.954 94.11C229.594 93.46 229.414 92.71 229.414 91.86C229.414 91.02 229.599 90.275 229.969 89.625C230.339 88.975 230.844 88.475 231.484 88.125C232.124 87.775 232.839 87.6 233.629 87.6C234.419 87.6 235.134 87.775 235.774 88.125C236.414 88.475 236.919 88.975 237.289 89.625C237.659 90.275 237.844 91.02 237.844 91.86C237.844 92.7 237.654 93.445 237.274 94.095C236.894 94.745 236.374 95.25 235.714 95.61C235.064 95.96 234.344 96.135 233.554 96.135ZM233.554 94.65C233.994 94.65 234.404 94.545 234.784 94.335C235.174 94.125 235.489 93.81 235.729 93.39C235.969 92.97 236.089 92.46 236.089 91.86C236.089 91.26 235.974 90.755 235.744 90.345C235.514 89.925 235.209 89.61 234.829 89.4C234.449 89.19 234.039 89.085 233.599 89.085C233.159 89.085 232.749 89.19 232.369 89.4C231.999 89.61 231.704 89.925 231.484 90.345C231.264 90.755 231.154 91.26 231.154 91.86C231.154 92.75 231.379 93.44 231.829 93.93C232.289 94.41 232.864 94.65 233.554 94.65ZM238.964 91.86C238.964 91.01 239.134 90.265 239.474 89.625C239.824 88.975 240.304 88.475 240.914 88.125C241.524 87.775 242.224 87.6 243.014 87.6C244.014 87.6 244.839 87.84 245.489 88.32C246.149 88.79 246.594 89.465 246.824 90.345H244.979C244.829 89.935 244.589 89.615 244.259 89.385C243.929 89.155 243.514 89.04 243.014 89.04C242.314 89.04 241.754 89.29 241.334 89.79C240.924 90.28 240.719 90.97 240.719 91.86C240.719 92.75 240.924 93.445 241.334 93.945C241.754 94.445 242.314 94.695 243.014 94.695C244.004 94.695 244.659 94.26 244.979 93.39H246.824C246.584 94.23 246.134 94.9 245.474 95.4C244.814 95.89 243.994 96.135 243.014 96.135C242.224 96.135 241.524 95.96 240.914 95.61C240.304 95.25 239.824 94.75 239.474 94.11C239.134 93.46 238.964 92.71 238.964 91.86ZM250.523 89.13V93.705C250.523 94.015 250.593 94.24 250.733 94.38C250.883 94.51 251.133 94.575 251.483 94.575H252.533V96H251.183C250.413 96 249.823 95.82 249.413 95.46C249.003 95.1 248.798 94.515 248.798 93.705V89.13H247.823V87.735H248.798V85.68H250.523V87.735H252.533V89.13H250.523ZM257.694 96.135C256.914 96.135 256.209 95.96 255.579 95.61C254.949 95.25 254.454 94.75 254.094 94.11C253.734 93.46 253.554 92.71 253.554 91.86C253.554 91.02 253.739 90.275 254.109 89.625C254.479 88.975 254.984 88.475 255.624 88.125C256.264 87.775 256.979 87.6 257.769 87.6C258.559 87.6 259.274 87.775 259.914 88.125C260.554 88.475 261.059 88.975 261.429 89.625C261.799 90.275 261.984 91.02 261.984 91.86C261.984 92.7 261.794 93.445 261.414 94.095C261.034 94.745 260.514 95.25 259.854 95.61C259.204 95.96 258.484 96.135 257.694 96.135ZM257.694 94.65C258.134 94.65 258.544 94.545 258.924 94.335C259.314 94.125 259.629 93.81 259.869 93.39C260.109 92.97 260.229 92.46 260.229 91.86C260.229 91.26 260.114 90.755 259.884 90.345C259.654 89.925 259.349 89.61 258.969 89.4C258.589 89.19 258.179 89.085 257.739 89.085C257.299 89.085 256.889 89.19 256.509 89.4C256.139 89.61 255.844 89.925 255.624 90.345C255.404 90.755 255.294 91.26 255.294 91.86C255.294 92.75 255.519 93.44 255.969 93.93C256.429 94.41 257.004 94.65 257.694 94.65ZM265.385 88.935C265.635 88.515 265.965 88.19 266.375 87.96C266.795 87.72 267.29 87.6 267.86 87.6V89.37H267.425C266.755 89.37 266.245 89.54 265.895 89.88C265.555 90.22 265.385 90.81 265.385 91.65V96H263.675V87.735H265.385V88.935ZM272.432 96.135C271.782 96.135 271.197 96.02 270.677 95.79C270.167 95.55 269.762 95.23 269.462 94.83C269.162 94.42 269.002 93.965 268.982 93.465H270.752C270.782 93.815 270.947 94.11 271.247 94.35C271.557 94.58 271.942 94.695 272.402 94.695C272.882 94.695 273.252 94.605 273.512 94.425C273.782 94.235 273.917 93.995 273.917 93.705C273.917 93.395 273.767 93.165 273.467 93.015C273.177 92.865 272.712 92.7 272.072 92.52C271.452 92.35 270.947 92.185 270.557 92.025C270.167 91.865 269.827 91.62 269.537 91.29C269.257 90.96 269.117 90.525 269.117 89.985C269.117 89.545 269.247 89.145 269.507 88.785C269.767 88.415 270.137 88.125 270.617 87.915C271.107 87.705 271.667 87.6 272.297 87.6C273.237 87.6 273.992 87.84 274.562 88.32C275.142 88.79 275.452 89.435 275.492 90.255H273.782C273.752 89.885 273.602 89.59 273.332 89.37C273.062 89.15 272.697 89.04 272.237 89.04C271.787 89.04 271.442 89.125 271.202 89.295C270.962 89.465 270.842 89.69 270.842 89.97C270.842 90.19 270.922 90.375 271.082 90.525C271.242 90.675 271.437 90.795 271.667 90.885C271.897 90.965 272.237 91.07 272.687 91.2C273.287 91.36 273.777 91.525 274.157 91.695C274.547 91.855 274.882 92.095 275.162 92.415C275.442 92.735 275.587 93.16 275.597 93.69C275.597 94.16 275.467 94.58 275.207 94.95C274.947 95.32 274.577 95.61 274.097 95.82C273.627 96.03 273.072 96.135 272.432 96.135ZM278.134 96.105C277.824 96.105 277.564 96 277.354 95.79C277.144 95.58 277.039 95.32 277.039 95.01C277.039 94.7 277.144 94.44 277.354 94.23C277.564 94.02 277.824 93.915 278.134 93.915C278.434 93.915 278.689 94.02 278.899 94.23C279.109 94.44 279.214 94.7 279.214 95.01C279.214 95.32 279.109 95.58 278.899 95.79C278.689 96 278.434 96.105 278.134 96.105Z" fill="#142237"/>
<rect x="189" y="115" width="41" height="19" rx="9.5" fill="#9156EC"/>
<path d="M217.354 124.354C217.549 124.158 217.549 123.842 217.354 123.646L214.172 120.464C213.976 120.269 213.66 120.269 213.464 120.464C213.269 120.66 213.269 120.976 213.464 121.172L216.293 124L213.464 126.828C213.269 127.024 213.269 127.34 213.464 127.536C213.66 127.731 213.976 127.731 214.172 127.536L217.354 124.354ZM202 124.5L217 124.5L217 123.5L202 123.5L202 124.5Z" fill="white"/>
<defs>
<clipPath id="clip0_8_2">
<rect width="158" height="164" fill="white" transform="translate(14)"/>
</clipPath>
</defs>
</svg>
